<svg width="707" height="80" viewBox="0 0 707 80" fill="none" xmlns="http://www.w3.org/2000/svg">
<path fill-rule="evenodd" clip-rule="evenodd" d="M555.582 0.371079C545.386 1.24184 535.475 5.68346 529.617 12.0071C524.623 17.3984 521.557 23.7092 519.97 31.8614C519.254 35.5454 519.352 45.4687 520.143 49.2974C522.878 62.5263 531.135 72.5786 542.927 77.032C550.087 79.7357 560.366 80.7198 568.221 79.4525C585.246 76.7067 597.044 65.711 600.945 48.9514C601.859 45.0265 601.849 35.4713 600.926 31.3082C599.12 23.156 595.629 16.7707 590.024 11.3643C584.692 6.22118 578.496 2.92807 570.989 1.24629C568.768 0.748762 561.061 -0.101742 559.788 0.0100076C559.473 0.0380373 557.58 0.200319 555.582 0.371079ZM0 40.1597V78.8849H25.0452H50.0903V75.5656V72.2463H28.6777H7.26501V57.6819V43.1172L25.7143 43.0216L44.1636 42.9257V39.7908V36.6559L25.8099 36.4715L7.45619 36.2871L7.35601 22.1834L7.25583 8.07926L27.8127 7.98414L48.3697 7.8886L48.4802 4.66149L48.5907 1.43438H24.2953H0V40.1597ZM97.8864 40.1597V78.8849H101.519H105.151V61.9196V44.9542H123.505H141.859V41.6349V38.3156H123.505H105.151V23.1943V8.073H125.608H146.065V4.7537V1.43438H121.976H97.8864V40.1597ZM190.131 40.0675L190.228 78.7005L193.637 78.8079C196.107 78.8857 197.133 78.7842 197.36 78.439C197.532 78.1772 197.676 71.0263 197.679 62.548L197.685 47.1331L207.913 47.2423C222.902 47.4024 221.755 46.5161 231.684 65.6077L238.493 78.7005L242.561 78.8053C244.798 78.8628 246.628 78.8045 246.628 78.6758C246.628 78.1532 231.97 50.5756 231.057 49.38C230.515 48.67 229.399 47.4094 228.577 46.5788L227.084 45.0682L229.336 44.276C238.076 41.2023 244.334 32.4832 244.334 23.3787C244.334 15.2748 239.445 7.38368 232.33 4.00131C227.197 1.56125 226.076 1.44801 206.955 1.44064L190.034 1.43438L190.131 40.0675ZM296.718 40.1597V78.8849H321.763H346.809V75.5656V72.2463H325.396H303.983V57.6782V43.1101H322.337H340.691V39.7908V36.4715H322.337H303.983V22.2723V8.073H324.44H344.897V4.7537V1.43438H320.807H296.718V40.1597ZM394.316 40.0675L394.413 78.7005L397.822 78.8079C400.291 78.8857 401.318 78.7839 401.547 78.439C401.72 78.1772 401.86 63.7902 401.858 46.4678C401.855 29.1458 401.913 14.9156 401.986 14.8452C402.059 14.7751 403.322 16.3344 404.793 18.3105C406.264 20.2866 411.831 27.7122 417.163 34.8119C422.496 41.9115 428.932 50.5 431.465 53.8979C435.02 58.6659 436.263 60.0755 436.911 60.0755C437.583 60.0755 441.04 55.6889 454.128 38.2308C463.135 26.2163 470.886 15.9678 471.353 15.4566L472.201 14.5272L472.213 46.7061L472.226 78.8849H475.858H479.491V40.1597V1.43438L476.145 1.44618L472.799 1.45798L454.847 25.4721C437.218 49.0543 436.885 49.4703 436.302 48.6206C435.976 48.1445 432.698 43.7508 429.018 38.8563C425.338 33.9618 417.523 23.5395 411.652 15.6956L400.978 1.43438H397.598H394.219L394.316 40.0675ZM629.108 1.8954C629.215 2.14914 631.75 7.58434 634.742 13.974C640.167 25.5588 644.907 35.7203 649.453 45.5074C650.771 48.3473 652.445 51.9155 653.171 53.4369C653.897 54.9582 656.872 61.314 659.781 67.5606L665.071 78.9181L667.173 78.8093L669.275 78.7005L672.556 72.0501C674.361 68.3922 676.771 63.4962 677.913 61.1701C679.055 58.844 681.421 54.0587 683.171 50.5362C684.92 47.0137 686.352 44.0886 686.352 44.0359C686.352 43.9835 687.747 41.1396 689.45 37.7163C691.155 34.2933 693.113 30.3308 693.802 28.9109C694.491 27.491 696.691 23.0099 698.691 18.953C700.691 14.896 703.378 9.44092 704.663 6.83046C705.949 4.21964 707 1.93189 707 1.74638C707 1.55718 705.293 1.45466 703.121 1.51367C700.16 1.59407 699.164 1.74973 698.912 2.17202C698.588 2.71343 693.619 12.7322 691.139 17.8465C690.45 19.2665 688.125 23.9965 685.972 28.3577C683.82 32.7189 681.325 37.7808 680.428 39.6064C679.531 41.4321 677.895 44.7514 676.793 46.9827C673.617 53.4115 669.386 62.1335 667.896 65.3256C667.444 66.2944 667.292 66.0451 664.093 59.0557C661.006 52.3135 657.897 45.631 650.15 29.0953C648.487 25.5455 644.901 17.8698 642.182 12.0377L637.238 1.43438H633.076C629.899 1.43438 628.961 1.54355 629.108 1.8954ZM564.296 6.99277C576.109 8.25005 585.783 14.8909 590.777 25.17C593.358 30.4809 593.939 33.1777 593.971 39.9753C593.995 45.1135 593.881 46.2816 593.089 49.0112C589.301 62.0804 579.251 71.0576 566.208 73.0241C562.209 73.6268 554.191 73.2347 550.678 72.2644C538.946 69.024 531.089 61.158 528.004 49.5644C526.836 45.1737 526.715 35.6011 527.775 31.3838C531.557 16.3292 542.869 7.56589 559.707 6.64571C560.189 6.61915 562.254 6.77554 564.296 6.99277ZM224.271 8.64468C228.953 9.82082 232.599 12.3663 234.547 15.8188C239.715 24.9786 234.921 36.1326 224.354 39.5304C222.182 40.229 220.866 40.312 209.825 40.4447L197.685 40.5908V24.3321V8.073H209.84C219.585 8.073 222.447 8.18625 224.271 8.64468Z" fill="url(#paint0_linear_883_15409)"/>
<defs>
<linearGradient id="paint0_linear_883_15409" x1="447.155" y1="92.5" x2="447.155" y2="-12.5" gradientUnits="userSpaceOnUse">
<stop stop-color="#D1B381" stop-opacity="0"/>
<stop offset="0.287499" stop-color="#D1B381"/>
<stop offset="0.79552" stop-color="#D1B381" stop-opacity="0.41"/>
<stop offset="1" stop-color="#D1B381" stop-opacity="0"/>
</linearGradient>
</defs>
</svg>
