<svg width="202" height="24" viewBox="0 0 202 24" fill="none" xmlns="http://www.w3.org/2000/svg">
<path fill-rule="evenodd" clip-rule="evenodd" d="M158.738 0.111324C155.825 0.372553 152.993 1.70504 151.319 3.60213C149.892 5.21952 149.016 7.11275 148.563 9.55842C148.358 10.6636 148.386 13.6406 148.612 14.7892C149.394 18.7579 151.753 21.7736 155.122 23.1096C157.168 23.9207 160.105 24.2159 162.349 23.8358C167.213 23.012 170.584 19.7133 171.699 14.6854C171.96 13.508 171.957 10.6414 171.693 9.39245C171.177 6.94679 170.18 5.0312 168.578 3.40928C167.055 1.86635 165.285 0.878422 163.14 0.373887C162.505 0.224629 160.303 -0.0305227 159.939 0.00300229C159.849 0.0114112 159.309 0.0600957 158.738 0.111324ZM0 12.0479V23.6655H7.15576H14.3115V22.6697V21.6739H8.19362H2.07572V17.3046V12.9352L7.34694 12.9065L12.6182 12.8777V11.9373V10.9968L7.37426 10.9415L2.13034 10.8861L2.10172 6.65502L2.07309 2.42378L7.9465 2.39524L13.8199 2.36658L13.8515 1.39845L13.883 0.430315H6.94152H0V12.0479ZM27.9676 12.0479V23.6655H29.0054H30.0433V18.5759V13.4863H35.2872H40.5311V12.4905V11.4947H35.2872H30.0433V6.95829V2.4219H35.8881H41.7328V1.42611V0.430315H34.8502H27.9676V12.0479ZM54.3231 12.0202L54.351 23.6102L55.3249 23.6424C56.0305 23.6657 56.3237 23.6353 56.3885 23.5317C56.4378 23.4532 56.4787 21.3079 56.4797 18.7644L56.4813 14.1399L59.4037 14.1727C63.6863 14.2207 63.3585 13.9548 66.1955 19.6823L68.141 23.6102L69.303 23.6416C69.9421 23.6588 70.4651 23.6414 70.4651 23.6027C70.4651 23.446 66.2772 15.1727 66.0163 14.814C65.8614 14.601 65.5426 14.2228 65.3078 13.9737L64.8811 13.5205L65.5247 13.2828C68.0218 12.3607 69.8096 9.74496 69.8096 7.01361C69.8096 4.58244 68.413 2.21511 66.3801 1.20039C64.9135 0.468374 64.5932 0.434404 59.1301 0.432191L54.2954 0.430315L54.3231 12.0202ZM84.7766 12.0479V23.6655H91.9324H99.0882V22.6697V21.6739H92.9703H86.8524V17.3035V12.933H92.0963H97.3402V11.9373V10.9415H92.0963H86.8524V6.68168V2.4219H92.6971H98.5419V1.42611V0.430315H91.6593H84.7766V12.0479ZM112.662 12.0202L112.69 23.6102L113.664 23.6424C114.369 23.6657 114.662 23.6352 114.728 23.5317C114.777 23.4532 114.817 19.1371 114.817 13.9403C114.816 8.74375 114.832 4.47468 114.853 4.45355C114.874 4.43252 115.235 4.90033 115.655 5.49315C116.075 6.08598 117.666 8.31367 119.19 10.4436C120.713 12.5735 122.552 15.15 123.276 16.1694C124.292 17.5998 124.647 18.0227 124.832 18.0227C125.024 18.0227 126.011 16.7067 129.751 11.4692C132.324 7.8649 134.539 4.79034 134.672 4.63699L134.915 4.35816L134.918 14.0118L134.922 23.6655H135.959H136.997V12.0479V0.430315L136.041 0.433855L135.085 0.437395L129.956 7.64163C124.919 14.7163 124.824 14.8411 124.658 14.5862C124.565 14.4433 123.628 13.1252 122.577 11.6569C121.525 10.1885 119.292 7.06185 117.615 4.70868L114.565 0.430315H113.599H112.634L112.662 12.0202ZM179.745 0.56862C179.776 0.644743 180.5 2.2753 181.355 4.1922C182.905 7.66763 184.259 10.7161 185.558 13.6522C185.935 14.5042 186.413 15.5747 186.62 16.0311C186.828 16.4875 187.678 18.3942 188.509 20.2682L190.02 23.6754L190.621 23.6428L191.222 23.6102L192.159 21.615C192.674 20.5177 193.363 19.0489 193.689 18.351C194.016 17.6532 194.692 16.2176 195.192 15.1609C195.692 14.1041 196.101 13.2266 196.101 13.2108C196.101 13.1951 196.499 12.3419 196.986 11.3149C197.473 10.288 198.032 9.09925 198.229 8.67327C198.426 8.24729 199.055 6.90297 199.626 5.68589C200.197 4.46881 200.965 2.83227 201.332 2.04914C201.7 1.26589 202 0.579567 202 0.523914C202 0.467153 201.512 0.436398 200.892 0.454101C200.046 0.478221 199.761 0.524918 199.689 0.651605C199.597 0.81403 198.177 3.81967 197.468 5.35396C197.271 5.77994 196.607 7.19894 195.992 8.5073C195.377 9.81566 194.664 11.3342 194.408 11.8819C194.152 12.4296 193.684 13.4254 193.369 14.0948C192.462 16.0234 191.253 18.64 190.827 19.5977C190.698 19.8883 190.655 19.8135 189.741 17.7167C188.859 15.694 187.97 13.6893 185.757 8.72859C185.282 7.66364 184.257 5.36093 183.48 3.61132L182.068 0.430315H180.879C179.971 0.430315 179.703 0.463066 179.745 0.56862ZM161.227 2.09783C164.602 2.47501 167.367 4.46726 168.794 7.55101C169.531 9.14428 169.697 9.9533 169.706 11.9926C169.713 13.5341 169.68 13.8845 169.454 14.7033C168.372 18.6241 165.5 21.3173 161.774 21.9072C160.631 22.088 158.34 21.9704 157.336 21.6793C153.985 20.7072 151.74 18.3474 150.858 14.8693C150.525 13.5521 150.49 10.6803 150.793 9.41513C151.873 4.89876 155.105 2.26977 159.916 1.99371C160.054 1.98575 160.644 2.03266 161.227 2.09783ZM64.0774 2.5934C65.415 2.94625 66.4568 3.7099 67.0133 4.74564C68.4901 7.49358 67.1203 10.8398 64.1012 11.8591C63.4804 12.0687 63.1045 12.0936 59.95 12.1334L56.4813 12.1772V7.29962V2.4219H59.9543C62.7386 2.4219 63.5563 2.45587 64.0774 2.5934Z" fill="black"/>
</svg>
